<svg viewBox="0 0 23 23" fill="currentColor" xmlns="http://www.w3.org/2000/svg">
<path d="M10.4219 18.6876C10.1922 18.6876 9.96863 18.6139 9.78398 18.4774C9.77372 18.4703 9.76383 18.4626 9.75434 18.4545L5.64937 15.0939H2.51562C2.22969 15.0939 1.95546 14.9803 1.75328 14.7781C1.55109 14.5759 1.4375 14.3017 1.4375 14.0157V8.98449C1.4375 8.69856 1.55109 8.42433 1.75328 8.22214C1.95546 8.01996 2.22969 7.90637 2.51562 7.90637H5.64893L9.75344 4.54576C9.76293 4.53763 9.77282 4.52999 9.78309 4.52285C9.94365 4.40476 10.1338 4.33349 10.3324 4.31695C10.5311 4.30041 10.7304 4.33926 10.9083 4.42918C11.0861 4.51909 11.2356 4.65656 11.3401 4.8263C11.4445 4.99605 11.4999 5.19143 11.5 5.39074V17.6095C11.5 17.8954 11.3864 18.1697 11.1842 18.3718C10.982 18.574 10.7078 18.6876 10.4219 18.6876Z" />
<path d="M16.5313 17.2499C16.4051 17.2499 16.2811 17.2168 16.1719 17.1537C16.0626 17.0906 15.9718 16.9999 15.9087 16.8906C15.8456 16.7813 15.8124 16.6574 15.8124 16.5312C15.8124 16.405 15.8456 16.2811 15.9087 16.1718C16.7581 14.6934 17.25 13.4545 17.25 11.4999C17.25 9.51572 16.759 8.28531 15.9105 6.83074C15.8174 6.66625 15.7929 6.47172 15.8422 6.28928C15.8915 6.10683 16.0107 5.95115 16.1739 5.85593C16.3372 5.76072 16.5314 5.73364 16.7145 5.78056C16.8975 5.82747 17.0548 5.9446 17.1521 6.1066C18.1 7.73142 18.6875 9.20037 18.6875 11.4999C18.6875 13.7653 18.1009 15.2415 17.1544 16.8905C17.0912 16.9999 17.0004 17.0907 16.891 17.1538C16.7816 17.2169 16.6576 17.25 16.5313 17.2499Z" />
<path d="M18.6875 19.4063C18.558 19.4062 18.431 19.3712 18.3199 19.3049C18.2087 19.2386 18.1175 19.1435 18.0559 19.0297C17.9943 18.9158 17.9646 18.7875 17.9699 18.6582C17.9751 18.5288 18.0153 18.4033 18.086 18.2949C19.3096 16.4176 20.125 14.544 20.125 11.5C20.125 8.51274 19.3083 6.62063 18.0815 4.69933C18.0307 4.61969 17.9961 4.53082 17.9796 4.43781C17.9632 4.34479 17.9652 4.24945 17.9856 4.15722C18.006 4.06499 18.0444 3.97768 18.0985 3.90028C18.1526 3.82288 18.2215 3.7569 18.3011 3.7061C18.3808 3.65531 18.4696 3.6207 18.5627 3.60425C18.6557 3.5878 18.751 3.58984 18.8432 3.61023C18.9355 3.63063 19.0228 3.669 19.1002 3.72314C19.1776 3.77728 19.2436 3.84613 19.2944 3.92577C20.6555 6.05956 21.5625 8.16415 21.5625 11.5C21.5625 14.4087 20.9039 16.6045 19.2894 19.0802C19.2241 19.1803 19.1349 19.2626 19.0298 19.3195C18.9247 19.3765 18.807 19.4063 18.6875 19.4063Z"/>
</svg>
